<svg xmlns="http://www.w3.org/2000/svg" viewBox="0 0 1200 700" role="img" aria-labelledby="title desc">
  <title id="title">Alabanzas mañaneras</title>
  <desc id="desc">Amanecer dorado sobre un paisaje con una cruz y el nombre del programa.</desc>
  <defs>
    <linearGradient id="bg" x1="0" y1="0" x2="1" y2="1"><stop stop-color="#120d22"/><stop offset=".55" stop-color="#53223e"/><stop offset="1" stop-color="#e06a35"/></linearGradient>
    <radialGradient id="sun"><stop stop-color="#fff6bf"/><stop offset=".28" stop-color="#ffc85a"/><stop offset="1" stop-color="#e95c35" stop-opacity="0"/></radialGradient>
    <filter id="glow"><feGaussianBlur stdDeviation="14"/></filter>
  </defs>
  <rect width="1200" height="700" fill="url(#bg)"/>
  <circle cx="860" cy="270" r="210" fill="url(#sun)" filter="url(#glow)"/>
  <circle cx="860" cy="270" r="105" fill="#ffd978"/>
  <g stroke="#ffe9a3" stroke-width="7" opacity=".65">
    <path d="M860 90v-55M860 450v55M680 270h-55M1040 270h55M733 143l-39-39M987 397l39 39M987 143l39-39M733 397l-39 39"/>
  </g>
  <path d="M0 570 Q190 440 380 545T760 520T1200 500V700H0Z" fill="#100c1b"/>
  <path d="M0 625 Q230 510 440 615T850 590T1200 565V700H0Z" fill="#07070d" opacity=".86"/>
  <g stroke="#fff7dd" stroke-width="18" stroke-linecap="round" opacity=".9"><path d="M285 330v175"/><path d="M220 395h130"/></g>
  <text x="70" y="100" fill="#ffeab1" font-family="Arial,sans-serif" font-size="23" font-weight="700" letter-spacing="6">SERIE23 RADIO</text>
  <text x="70" y="535" fill="#fff8ea" font-family="Arial,sans-serif" font-size="62" font-weight="800" letter-spacing="2">ALABANZAS</text>
  <text x="70" y="600" fill="#ffd36b" font-family="Arial,sans-serif" font-size="62" font-weight="800" letter-spacing="2">MAÑANERAS</text>
  <rect x="70" y="630" width="185" height="4" fill="#e2131f"/>
</svg>
